<svg xmlns="http://www.w3.org/2000/svg" xmlns:xlink="http://www.w3.org/1999/xlink" xmlns:lucid="lucid" width="2096.51" height="1702"><g transform="translate(-58.5 -259)" lucid:page-tab-id=".Q4MUjXso07N"><path d="M0 0h2442.9v2013.66H0z" fill="#fff"/><path d="M600 265a5 5 0 0 1 5-5h1050a5 5 0 0 1 5 5v1690a5 5 0 0 1-5 5H605a5 5 0 0 1-5-5z" stroke="#6db1ff" stroke-width="2" fill-opacity="0"/><use xlink:href="#a" transform="matrix(1,0,0,1,608,268) translate(473.9259259259259 21.333333333333336)"/><path d="M168 826.85c0 17.26-14 31.24-31.25 31.24s-31.23-14-31.23-31.25 13.98-31.23 31.23-31.23c17.26 0 31.24 13.98 31.24 31.23z" stroke="#000" stroke-width="3" fill="#fff"/><path d="M136.75 858.1v82.46a14.72 14.72 0 0 0 3.05 8.96l73.7 96m-76.75-99.96L60 1045.52m0-156.2h153.5" stroke="#000" stroke-width="3" fill="none"/><path d="M60 800.62a5 5 0 0 1 5-5h143.5a5 5 0 0 1 5 5v261.9a5 5 0 0 1-5 5H65a5 5 0 0 1-5-5z" fill="none"/><use xlink:href="#b" transform="matrix(1,0,0,1,-20,1045.515734912995) translate(103.54938271604938 9.55555555555555)"/><path d="M2108 331.24c0 17.25-14 31.24-31.25 31.24s-31.23-14-31.23-31.24c0-17.25 13.98-31.24 31.23-31.24 17.26 0 31.24 14 31.24 31.24z" stroke="#000" stroke-width="3" fill="#fff"/><path d="M2076.75 362.48v82.46a14.72 14.72 0 0 0 3.05 8.96l73.7 96m-76.75-99.96L2000 549.9m0-156.2h153.5" stroke="#000" stroke-width="3" fill="none"/><path d="M2000 305a5 5 0 0 1 5-5h143.5a5 5 0 0 1 5 5v261.9a5 5 0 0 1-5 5H2005a5 5 0 0 1-5-5z" fill="none"/><use xlink:href="#c" transform="matrix(1,0,0,1,1920,549.8992965568308) translate(113.01234567901234 9.55555555555555)"/><path d="M999 420.5c0 50.05-68.74 90.63-153.5 90.63-84.8 0-153.52-40.58-153.52-90.63 0-50.06 68.73-90.64 153.5-90.64 84.78 0 153.5 40.58 153.5 90.64z" stroke="#6db1ff" stroke-width="2" fill="#edf5ff"/><use xlink:href="#d" transform="matrix(1,0,0,1,738.0303415534926,366.11625323954087) translate(28.388888888888886 43.833333333333336)"/><use xlink:href="#e" transform="matrix(1,0,0,1,738.0303415534926,366.11625323954087) translate(171.7962962962963 43.833333333333336)"/><use xlink:href="#f" transform="matrix(1,0,0,1,738.0303415534926,366.11625323954087) translate(30.648148148148138 75.83333333333334)"/><use xlink:href="#g" transform="matrix(1,0,0,1,738.0303415534926,366.11625323954087) translate(107.38888888888889 75.83333333333334)"/><path d="M985.8 793.1c0 50.05-68.74 90.63-153.52 90.63-84.78 0-153.5-40.58-153.5-90.63 0-50.06 68.72-90.63 153.5-90.63s153.5 40.57 153.5 90.63z" stroke="#6db1ff" stroke-width="2" fill="#edf5ff"/><use xlink:href="#h" transform="matrix(1,0,0,1,724.8245890646585,738.7189929655682) translate(21.759259259259252 43.833333333333336)"/><use xlink:href="#i" transform="matrix(1,0,0,1,724.8245890646585,738.7189929655682) translate(112.05555555555554 43.833333333333336)"/><use xlink:href="#j" transform="matrix(1,0,0,1,724.8245890646585,738.7189929655682) translate(134.27777777777777 43.833333333333336)"/><use xlink:href="#k" transform="matrix(1,0,0,1,724.8245890646585,738.7189929655682) translate(55.685185185185176 75.83333333333334)"/><path d="M1599.82 793.1c0 50.05-68.73 90.63-153.5 90.63-84.8 0-153.52-40.58-153.52-90.63 0-50.06 68.73-90.63 153.5-90.63 84.8 0 153.52 40.57 153.52 90.63z" stroke="#6db1ff" stroke-width="2" fill="#edf5ff"/><use xlink:href="#l" transform="matrix(1,0,0,1,1338.8534319721618,738.7189929655682) translate(35.72222222222223 43.833333333333336)"/><use xlink:href="#m" transform="matrix(1,0,0,1,1338.8534319721618,738.7189929655682) translate(149.64814814814815 43.833333333333336)"/><use xlink:href="#n" transform="matrix(1,0,0,1,1338.8534319721618,738.7189929655682) translate(49.018518518518505 75.83333333333334)"/><path d="M1029.02 1786.1c0 50.05-68.73 90.63-153.5 90.63-84.8 0-153.52-40.58-153.52-90.63 0-50.06 68.73-90.64 153.5-90.64 84.8 0 153.52 40.58 153.52 90.63z" stroke="#6db1ff" stroke-width="2" fill="#edf5ff"/><use xlink:href="#o" transform="matrix(1,0,0,1,768.0558636869098,1731.7147025169304) translate(25.425925925925924 59.833333333333336)"/><use xlink:href="#p" transform="matrix(1,0,0,1,768.0558636869098,1731.7147025169304) translate(130.31481481481484 59.833333333333336)"/><path d="M139.35 930.55L689.9 421.5M139.38 930.52l-3.33 3.08" stroke="#1071e5" stroke-width="3" fill="none"/><path d="M690.98 420.5v1.17l.04.8-.17.15-2-2.16 2.17-2z" stroke="#1071e5" stroke-width=".05" fill="#1071e5"/><path d="M139.7 931.2l536.62-137.73M139.74 931.18l-4.4 1.13" stroke="#1071e5" stroke-width="3" fill="none"/><path d="M677.77 793.1v1.17l.03.35-1.15.3-.73-2.87 1.88-.48z" stroke="#1071e5" stroke-width=".05" fill="#1071e5"/><path d="M2073.75 435.93l-1072.26-15.4M2073.72 435.93l4.53.06" stroke="#1071e5" stroke-width="3" fill="none"/><path d="M1001.55 419.04l-.04 2.95-1.54-.03.03-1.47-.02-1.17v-.3z" stroke="#1071e5" stroke-width=".05" fill="#1071e5"/><path d="M1289.07 793.1h-14.32m-14.32 0h-28.65m-14.32 0h-28.65m-14.3 0h-28.66m-14.32 0h-28.65m-14.32 0h-28.65m-14.32 0h-28.65m-14.32 0h-14.3M1271.48 783.1l17.32 10-17.32 10" stroke="#000" stroke-width="3" fill="none"/><path d="M988.33 794.57h-1.57l.03-1.47-.02-1.17-.02-.3h1.57z" stroke="#000" stroke-width=".05"/><path d="M2073.95 436.7l-514.6 292.36M2073.92 436.7l3.94-2.23" stroke="#1071e5" stroke-width="3" fill="none"/><path d="M1560.1 730.32l-.64.38-2.7-1.72-.13-.07 2.02-1.14z" stroke="#1071e5" stroke-width=".05" fill="#1071e5"/><path d="M1529.85 560.22c0 50.06-68.72 90.63-153.5 90.63s-153.5-40.57-153.5-90.63c0-50.05 68.72-90.63 153.5-90.63s153.5 40.57 153.5 90.62z" stroke="#6db1ff" stroke-width="2" fill="#edf5ff"/><use xlink:href="#q" transform="matrix(1,0,0,1,1268.8920113552538,505.84228063680115) translate(30.833333333333314 59.833333333333336)"/><use xlink:href="#r" transform="matrix(1,0,0,1,1268.8920113552538,505.84228063680115) translate(118.98148148148148 59.833333333333336)"/><path d="M1202.44 553.25l-15.12-5.44m-15.12-5.42l-30.24-10.88m-15.12-5.43l-30.24-10.87m-15.12-5.44l-30.24-10.87m-15.12-5.44l-30.24-10.87m-15.12-5.45l-15.12-5.44" stroke="#333" stroke-width="3" fill="none"/><path d="M1217.27 558.58l-15-.46 3.14-8.73z" stroke="#333" stroke-width="3" fill="#333"/><path d="M976.18 470.34l-1 2.78-2.23-.8 1.67-1.44.84-.8z" stroke="#333" stroke-width=".05" fill="#333"/><path d="M1599.82 1117.22c0 54.04-68.73 97.85-153.5 97.85-84.8 0-153.52-43.8-153.52-97.85s68.73-97.86 153.5-97.86c84.8 0 153.52 43.8 153.52 97.86z" stroke="#6db1ff" stroke-width="2" fill="#edf5ff"/><use xlink:href="#s" transform="matrix(1,0,0,1,1338.8534319721623,1058.5043573873381) translate(59.5 48.333333333333336)"/><use xlink:href="#t" transform="matrix(1,0,0,1,1338.8534319721623,1058.5043573873381) translate(26.944444444444457 80.33333333333334)"/><path d="M1446.3 886.23v18.6m0 18.57v37.17m0 18.6v18.57" stroke="#333" stroke-width="3" fill="none"/><path d="M1446.3 884.73h1.48v1.54h-2.95v-1.57z" stroke="#333" stroke-width=".05" fill="#333"/><path d="M1446.3 1013.5l-4.63-14.26h9.27z" stroke="#333" stroke-width="3" fill="#333"/><path d="M999 1117.22c0 54.04-68.74 97.85-153.5 97.85-84.8 0-153.52-43.8-153.52-97.85s68.73-97.86 153.5-97.86c84.78 0 153.5 43.8 153.5 97.86z" stroke="#6db1ff" stroke-width="2" fill="#edf5ff"/><use xlink:href="#u" transform="matrix(1,0,0,1,738.0303415534927,1058.5043573873381) translate(50.12962962962963 48.333333333333336)"/><use xlink:href="#k" transform="matrix(1,0,0,1,738.0303415534927,1058.5043573873381) translate(55.685185185185176 80.33333333333334)"/><path d="M1001.5 1117.22h14.82m14.83 0h29.66m14.84 0h29.66m14.83 0h29.66m14.82 0h29.66m14.83 0h29.66m14.83 0h14.82" stroke="#333" stroke-width="3" fill="none"/><path d="M1001.53 1118.7h-1.57l.03-1.48-.02-1.36v-.12h1.55z" stroke="#333" stroke-width=".05" fill="#333"/><path d="M1284.2 1117.2l-14.28 4.65v-9.27z" stroke="#333" stroke-width="3" fill="#333"/><path d="M999 1443.72c0 50.06-68.74 90.64-153.5 90.64-84.8 0-153.52-40.58-153.52-90.63 0-50.06 68.73-90.64 153.5-90.64 84.78 0 153.5 40.57 153.5 90.63z" stroke="#6db1ff" stroke-width="2" fill="#edf5ff"/><use xlink:href="#v" transform="matrix(1,0,0,1,738.0303415534927,1389.3446871529065) translate(60.16666666666667 27.83333333333333)"/><use xlink:href="#w" transform="matrix(1,0,0,1,738.0303415534927,1389.3446871529065) translate(34.98148148148147 59.83333333333333)"/><use xlink:href="#x" transform="matrix(1,0,0,1,738.0303415534927,1389.3446871529065) translate(159.35185185185185 59.83333333333333)"/><use xlink:href="#y" transform="matrix(1,0,0,1,738.0303415534927,1389.3446871529065) translate(70.57407407407406 91.83333333333334)"/><path d="M1599.82 1443.72c0 50.06-68.73 90.64-153.5 90.64-84.8 0-153.52-40.58-153.52-90.63 0-50.06 68.73-90.64 153.5-90.64 84.8 0 153.52 40.57 153.52 90.63z" stroke="#6db1ff" stroke-width="2" fill="#edf5ff"/><use xlink:href="#z" transform="matrix(1,0,0,1,1338.853431972162,1389.3446871529065) translate(40.27777777777777 27.83333333333333)"/><use xlink:href="#A" transform="matrix(1,0,0,1,1338.853431972162,1389.3446871529065) translate(54.24074074074073 59.83333333333333)"/><use xlink:href="#B" transform="matrix(1,0,0,1,1338.853431972162,1389.3446871529065) translate(147.42592592592592 59.83333333333333)"/><use xlink:href="#C" transform="matrix(1,0,0,1,1338.853431972162,1389.3446871529065) translate(39.35185185185185 91.83333333333334)"/><path d="M139.35 932.6l550.53 510.1M139.38 932.6l-3.33-3.07" stroke="#1071e5" stroke-width="3" fill="none"/><path d="M691.02 1441.75l-.04 1.97v1.17l.05.88-2.18-2.02 2-2.16z" stroke="#1071e5" stroke-width=".05" fill="#1071e5"/><path d="M139.68 932.04l549.88 184.7M139.7 932.06l-4.3-1.45" stroke="#1071e5" stroke-width="3" fill="none"/><path d="M691 1115.67l-.02 1.54v1.38l.02.2-1.95-.65.94-2.8z" stroke="#1071e5" stroke-width=".05" fill="#1071e5"/><path d="M845.5 1217.57v12.66m0 12.65v25.3m0 12.67v25.3m0 12.67v12.65" stroke="#333" stroke-width="3" fill="none"/><path d="M845.48 1216.07h1.48v1.54H844v-1.56z" stroke="#333" stroke-width=".05" fill="#333"/><path d="M845.5 1347.24l-4.65-14.27h9.27z" stroke="#333" stroke-width="3" fill="#333"/><path d="M1001.5 1443.72h14.98m14.98 0h29.96m15 0h29.95m14.98 0h29.97m14.98 0h29.97m14.98 0h29.97m14.98 0h14.98" stroke="#333" stroke-width="3" fill="none"/><path d="M1001.53 1445.2h-1.57l.03-1.47-.02-1.17v-.3h1.55z" stroke="#333" stroke-width=".05" fill="#333"/><path d="M1286.95 1443.72l-14.27 4.64v-9.27z" stroke="#333" stroke-width="3" fill="#333"/><path d="M1585.16 1786.1c0 50.05-68.73 90.63-153.5 90.63-84.8 0-153.52-40.58-153.52-90.63 0-50.06 68.73-90.64 153.5-90.64 84.8 0 153.52 40.58 153.52 90.63z" stroke="#6db1ff" stroke-width="2" fill="#edf5ff"/><use xlink:href="#D" transform="matrix(1,0,0,1,1324.1966606220883,1731.7147025169304) translate(15.018518518518533 59.833333333333336)"/><use xlink:href="#E" transform="matrix(1,0,0,1,1324.1966606220883,1731.7147025169304) translate(120.05555555555556 59.833333333333336)"/><path d="M2074.6 437.3l-473.14 1005.07M2074.6 437.34l1.93-4.1" stroke="#1071e5" stroke-width="3" fill="none"/><path d="M1602.8 1442.96l-1.93 4.1-.16-.07.07-.95.05-2.32-.02-1.17-.02-.55z" stroke="#1071e5" stroke-width=".05" fill="#1071e5"/><path d="M2074.74 437.36l-488.07 1347.32M2074.73 437.4l1.55-4.27" stroke="#1071e5" stroke-width="3" fill="none"/><path d="M1588.07 1785.15l-1.55 4.27-.46-.17.05-.83.06-2.32v-1.17l-.03-.48z" stroke="#1071e5" stroke-width=".05" fill="#1071e5"/><path d="M1313.25 1515.48l-12.16 7.57m-12.17 7.57l-24.33 15.14m-12.15 7.57l-24.33 15.14m-12.16 7.57l-24.32 15.13m-12.16 7.57l-24.32 15.14m-12.16 7.57l-24.32 15.14m-12.16 7.56l-24.33 15.13m-12.17 7.56L1045.7 1682m-12.15 7.57l-24.32 15.14m-12.16 7.58l-12.16 7.57" stroke="#333" stroke-width="3" fill="none"/><path d="M1326.63 1507.15l-9.66 11.48-4.9-7.87z" stroke="#333" stroke-width="3" fill="#333"/><path d="M985.72 1721.08l-.64.4-2.9-1.68 1.98-1.23z" stroke="#333" stroke-width=".05" fill="#333"/><path d="M1031.52 1786.1h15m15 0h30m15 0h30m15 0h30m15 0h30m15 0h15" stroke="#333" stroke-width="3" fill="none"/><path d="M1031.56 1787.57H1030l.02-1.47v-1.17l-.03-.3h1.56z" stroke="#333" stroke-width=".05" fill="#333"/><path d="M1272.3 1786.1l-14.28 4.63v-9.27z" stroke="#333" stroke-width="3" fill="#333"/><path d="M136.1 922.5l1.8 2.66c2.28-1.55 5.4-.95 6.94 1.34.17.25.3.47.4.74.6.62.98 1.27 1.22 2.1 2.2 1.68 2.6 4.82.9 7-.33.45-.68.78-1.15 1.1l573.96 847.4M136.12 922.53l-2.55-3.75" stroke="#1071e5" stroke-width="3" fill="none"/><path d="M721 1786.1l.02 1.16.06 1.58-2.16-3.2 2.12-1.43z" stroke="#1071e5" stroke-width=".05" fill="#1071e5"/><path d="M1004.32 432.72a8 8 0 0 1 10.32-4.63l209.3 79.82a8 8 0 0 1 4.62 10.33l-15.68 41.1a8 8 0 0 1-10.33 4.63l-209.3-79.83a8 8 0 0 1-4.6-10.32z" fill="none"/><use xlink:href="#F" transform="matrix(0.9343370389712322,0.35639065308516454,-0.35639065308516454,0.9343370389712322,1007.1702864854572,425.2410389296953) translate(71.16049382716051 33.55555555555556)"/><path d="M1015.6 748.3a8 8 0 0 1 8-8h224a8 8 0 0 1 8 8v44a8 8 0 0 1-8 8h-224a8 8 0 0 1-8-8z" fill="none"/><use xlink:href="#F" transform="matrix(1,0,0,1,1015.6092645752101,740.2896711538225) translate(71.16049382716051 33.55555555555556)"/><path d="M964.93 1052.78l12.92-6.97m12.92-6.96l25.85-13.94m12.92-6.97l25.85-13.95m12.9-6.97l25.86-13.93m12.92-6.97l25.85-13.95m12.92-6.97l25.85-13.94m12.92-6.97l25.85-13.94m12.92-6.98l25.83-13.94m12.93-6.96L1288 878.5m12.93-6.97l12.92-6.98" stroke="#333" stroke-width="3" fill="none"/><path d="M965.66 1054.06l-.76.4-2.58-1.94 1.94-1.05z" stroke="#333" stroke-width=".05" fill="#333"/><path d="M1327.73 857.07l-10.36 10.85-4.4-8.16z" stroke="#333" stroke-width="3" fill="#333"/><path d="M1019.35 970.66a8 8 0 0 1 3.33-10.8l203.75-107.68a8 8 0 0 1 10.8 3.34l22 41.63a8 8 0 0 1-3.32 10.8l-203.74 107.68a8 8 0 0 1-10.8-3.34z" fill="none"/><use xlink:href="#G" transform="matrix(0.8841455193725628,-0.46721162290060925,0.46721162290060925,0.8841455193725628,1015.60926457521,963.5857232706061) translate(76.09259259259258 35.55555555555556)"/><path d="M1492 820a8 8 0 0 1 8 8v243.12a8 8 0 0 1-8 8h-44a8 8 0 0 1-8-8V828a8 8 0 0 1 8-8z" fill="none"/><use xlink:href="#F" transform="matrix(6.123233995736766e-17,1,-1,6.123233995736766e-17,1500,819.9999999999999) translate(81.16049382716051 34.05555555555556)"/><path d="M1019.3 1075.52a8 8 0 0 1 8-8h224a8 8 0 0 1 8 8v44a8 8 0 0 1-8 8h-224a8 8 0 0 1-8-8z" fill="none"/><use xlink:href="#F" transform="matrix(1,0,0,1,1019.2940580272232,1067.515734912995) translate(71.16049382716051 33.55555555555556)"/><g><path d="M895.1 1160a8 8 0 0 1 8 8v230.45a8 8 0 0 1-8 8H848a8 8 0 0 1-8-8V1168a8 8 0 0 1 8-8z" fill="none"/></g><g><use xlink:href="#G" transform="matrix(6.123233995736766e-17,1,-1,6.123233995736766e-17,903.0857274653572,1160.0000000000002) translate(76.09259259259258 35.55555555555556)"/></g><path d="M964.58 1181.94l12.95 7.04m12.95 7.03l25.9 14.1m12.96 7.03l25.9 14.07m12.95 7.04l25.9 14.08m12.94 7.04l25.9 14.07m12.96 7.04l25.9 14.08m12.95 7.04l25.9 14.06m12.95 7.04l25.9 14.08m12.96 7.03l25.9 14.1m12.95 7.03l12.96 7.04" stroke="#333" stroke-width="3" fill="none"/><path d="M965.32 1180.66l-1.4 2.6-1.98-1.08 1.75-1.27.84-.66z" stroke="#333" stroke-width=".05" fill="#333"/><path d="M1328.1 1379.5l-14.73-2.75 4.42-8.14z" stroke="#333" stroke-width="3" fill="#333"/><g><path d="M1085.16 1191.32a8 8 0 0 1 11-2.6l190.5 117.84a8 8 0 0 1 2.6 11l-23.14 37.43a8 8 0 0 1-11 2.6l-190.5-117.85a8 8 0 0 1-2.6-11z" fill="none"/></g><g><use xlink:href="#F" transform="matrix(0.8504487164975805,0.5260579631633931,-0.5260579631633931,0.8504487164975805,1089.3684517754086,1184.5144775628619) translate(71.16049382716051 33.55555555555556)"/></g><path d="M1010 1408a8 8 0 0 1 8-8h224a8 8 0 0 1 8 8v44a8 8 0 0 1-8 8h-224a8 8 0 0 1-8-8z" fill="none"/><g><use xlink:href="#F" transform="matrix(1,0,0,1,1010,1400) translate(71.16049382716051 33.55555555555556)"/></g><g><path d="M1026.98 1650.94a8 8 0 0 1 2.7-10.98l191.74-115.82a8 8 0 0 1 11 2.7l22.74 37.67a8 8 0 0 1-2.7 11l-191.75 115.8a8 8 0 0 1-10.97-2.7z" fill="none"/></g><g><use xlink:href="#F" transform="matrix(0.8559556041199083,-0.5170493243160876,0.5170493243160876,0.8559556041199083,1022.8417535794799,1644.091837835861) translate(71.16049382716051 33.55555555555556)"/></g><path d="M867.5 1535.88v15.35m0 15.35v30.7m0 15.34v30.7m0 15.34V1674" stroke="#333" stroke-width="3" fill="none"/><path d="M868.96 1535.92H866v-1.4l2.96-.26z" stroke="#333" stroke-width=".05" fill="#333"/><path d="M867.5 1689.77l-4.65-14.27h9.27z" stroke="#333" stroke-width="3" fill="#333"/><g><path d="M915.1 1484.5a8 8 0 0 1 8 8v230.45a8 8 0 0 1-8 8H868a8 8 0 0 1-8-8V1492.5a8 8 0 0 1 8-8z" fill="none"/></g><g><use xlink:href="#G" transform="matrix(6.123233995736766e-17,1,-1,6.123233995736766e-17,923.0857274653572,1484.5009790387967) translate(76.09259259259258 35.55555555555556)"/></g><path d="M1040 1748a8 8 0 0 1 8-8h230.45a8 8 0 0 1 8 8v47.1a8 8 0 0 1-8 8H1048a8 8 0 0 1-8-8z" fill="none"/><g><use xlink:href="#G" transform="matrix(1,0,0,1,1040,1740) translate(76.09259259259258 35.55555555555556)"/></g><defs><path d="M185-189c-5-48-123-54-124 2 14 75 158 14 163 119 3 78-121 87-175 55-17-10-28-26-33-46l33-7c5 56 141 63 141-1 0-78-155-14-162-118-5-82 145-84 179-34 5 7 8 16 11 25" id="H"/><path d="M24-231v-30h32v30H24zM24 0v-190h32V0H24" id="I"/><path d="M135-143c-3-34-86-38-87 0 15 53 115 12 119 90S17 21 10-45l28-5c4 36 97 45 98 0-10-56-113-15-118-90-4-57 82-63 122-42 12 7 21 19 24 35" id="J"/><path d="M59-47c-2 24 18 29 38 22v24C64 9 27 4 27-40v-127H5v-23h24l9-43h21v43h35v23H59v120" id="K"/><path d="M100-194c63 0 86 42 84 106H49c0 40 14 67 53 68 26 1 43-12 49-29l28 8c-11 28-37 45-77 45C44 4 14-33 15-96c1-61 26-98 85-98zm52 81c6-60-76-77-97-28-3 7-6 17-6 28h103" id="L"/><path d="M210-169c-67 3-38 105-44 169h-31v-121c0-29-5-50-35-48C34-165 62-65 56 0H25l-1-190h30c1 10-1 24 2 32 10-44 99-50 107 0 11-21 27-35 58-36 85-2 47 119 55 194h-31v-121c0-29-5-49-35-48" id="M"/><path d="M141-36C126-15 110 5 73 4 37 3 15-17 15-53c-1-64 63-63 125-63 3-35-9-54-41-54-24 1-41 7-42 31l-33-3c5-37 33-52 76-52 45 0 72 20 72 64v82c-1 20 7 32 28 27v20c-31 9-61-2-59-35zM48-53c0 20 12 33 32 33 41-3 63-29 60-74-43 2-92-5-92 41" id="N"/><g id="a"><use transform="matrix(0.07407407407407408,0,0,0.07407407407407408,0,0)" xlink:href="#H"/><use transform="matrix(0.07407407407407408,0,0,0.07407407407407408,17.77777777777778,0)" xlink:href="#I"/><use transform="matrix(0.07407407407407408,0,0,0.07407407407407408,23.629629629629633,0)" xlink:href="#J"/><use transform="matrix(0.07407407407407408,0,0,0.07407407407407408,36.96296296296297,0)" xlink:href="#K"/><use transform="matrix(0.07407407407407408,0,0,0.07407407407407408,44.37037037037039,0)" xlink:href="#L"/><use transform="matrix(0.07407407407407408,0,0,0.07407407407407408,59.185185185185205,0)" xlink:href="#M"/><use transform="matrix(0.07407407407407408,0,0,0.07407407407407408,81.33333333333334,0)" xlink:href="#N"/></g><path fill="#333" d="M232-93c-1 65-40 97-104 97C67 4 28-28 28-90v-158h33c8 89-33 224 67 224 102 0 64-133 71-224h33v155" id="O"/><path fill="#333" d="M135-143c-3-34-86-38-87 0 15 53 115 12 119 90S17 21 10-45l28-5c4 36 97 45 98 0-10-56-113-15-118-90-4-57 82-63 122-42 12 7 21 19 24 35" id="P"/><path fill="#333" d="M84 4C-5 8 30-112 23-190h32v120c0 31 7 50 39 49 72-2 45-101 50-169h31l1 190h-30c-1-10 1-25-2-33-11 22-28 36-60 37" id="Q"/><path fill="#333" d="M141-36C126-15 110 5 73 4 37 3 15-17 15-53c-1-64 63-63 125-63 3-35-9-54-41-54-24 1-41 7-42 31l-33-3c5-37 33-52 76-52 45 0 72 20 72 64v82c-1 20 7 32 28 27v20c-31 9-61-2-59-35zM48-53c0 20 12 33 32 33 41-3 63-29 60-74-43 2-92-5-92 41" id="R"/><path fill="#333" d="M114-163C36-179 61-72 57 0H25l-1-190h30c1 12-1 29 2 39 6-27 23-49 58-41v29" id="S"/><path fill="#333" d="M24-231v-30h32v30H24zM24 0v-190h32V0H24" id="T"/><path fill="#333" d="M100-194c62-1 85 37 85 99 1 63-27 99-86 99S16-35 15-95c0-66 28-99 85-99zM99-20c44 1 53-31 53-75 0-43-8-75-51-75s-53 32-53 75 10 74 51 75" id="U"/><g id="b"><use transform="matrix(0.08641975308641976,0,0,0.08641975308641976,0,0)" xlink:href="#O"/><use transform="matrix(0.08641975308641976,0,0,0.08641975308641976,22.38271604938272,0)" xlink:href="#P"/><use transform="matrix(0.08641975308641976,0,0,0.08641975308641976,37.93827160493828,0)" xlink:href="#Q"/><use transform="matrix(0.08641975308641976,0,0,0.08641975308641976,55.22222222222223,0)" xlink:href="#R"/><use transform="matrix(0.08641975308641976,0,0,0.08641975308641976,72.50617283950618,0)" xlink:href="#S"/><use transform="matrix(0.08641975308641976,0,0,0.08641975308641976,82.79012345679013,0)" xlink:href="#T"/><use transform="matrix(0.08641975308641976,0,0,0.08641975308641976,89.61728395061729,0)" xlink:href="#U"/></g><path fill="#333" d="M205 0l-28-72H64L36 0H1l101-248h38L239 0h-34zm-38-99l-47-123c-12 45-31 82-46 123h93" id="V"/><path fill="#333" d="M85-194c31 0 48 13 60 33l-1-100h32l1 261h-30c-2-10 0-23-3-31C134-8 116 4 85 4 32 4 16-35 15-94c0-66 23-100 70-100zm9 24c-40 0-46 34-46 75 0 40 6 74 45 74 42 0 51-32 51-76 0-42-9-74-50-73" id="W"/><path fill="#333" d="M210-169c-67 3-38 105-44 169h-31v-121c0-29-5-50-35-48C34-165 62-65 56 0H25l-1-190h30c1 10-1 24 2 32 10-44 99-50 107 0 11-21 27-35 58-36 85-2 47 119 55 194h-31v-121c0-29-5-49-35-48" id="X"/><path fill="#333" d="M117-194c89-4 53 116 60 194h-32v-121c0-31-8-49-39-48C34-167 62-67 57 0H25l-1-190h30c1 10-1 24 2 32 11-22 29-35 61-36" id="Y"/><g id="c"><use transform="matrix(0.08641975308641976,0,0,0.08641975308641976,0,0)" xlink:href="#V"/><use transform="matrix(0.08641975308641976,0,0,0.08641975308641976,20.740740740740744,0)" xlink:href="#W"/><use transform="matrix(0.08641975308641976,0,0,0.08641975308641976,38.0246913580247,0)" xlink:href="#X"/><use transform="matrix(0.08641975308641976,0,0,0.08641975308641976,63.8641975308642,0)" xlink:href="#T"/><use transform="matrix(0.08641975308641976,0,0,0.08641975308641976,70.69135802469137,0)" xlink:href="#Y"/></g><path d="M249-183c0 48-29 72-75 77L221 0h-36l-43-103H65L45 0H11l48-248c83 2 190-17 190 65zm-34 3c0-55-74-39-127-41l-18 92c63-1 145 13 145-51" id="Z"/><path d="M111-194c62-3 86 47 72 106H45c-7 38 6 69 45 68 27-1 43-14 53-32l24 11C152-15 129 4 87 4 38 3 12-23 12-71c0-70 32-119 99-123zm44 81c14-66-71-72-95-28-4 8-8 17-11 28h106" id="aa"/><path d="M103-194c29 0 47 14 56 36 2-11 5-23 8-32h30L160-5C157 61 82 97 21 62 9 55 4 45 1 30l28-7c7 42 83 31 92-3 4-16 9-38 13-55-13 20-29 36-62 36-40 0-60-25-60-64 0-71 23-131 91-131zm4 24c-53 0-58 54-61 104-2 27 10 44 36 44 49 0 65-50 67-102 1-29-15-46-42-46" id="ab"/><path d="M50-231l6-30h32l-6 30H50zM6 0l37-190h31L37 0H6" id="ac"/><path d="M55-144c13 50 104 24 104 88C159 21 15 23 1-39l26-10c6 40 102 42 102-4-13-50-104-23-104-87 0-71 143-71 148-8l-29 4c-5-35-85-37-89 0" id="ad"/><path d="M51-54c-9 22 5 41 31 30L79-1C43 14 10-4 19-52l22-115H19l5-23h22l19-43h21l-9 43h35l-4 23H73" id="ae"/><path d="M66-151c12-25 30-51 66-40l-6 26C45-176 58-65 38 0H6l36-190h30" id="af"/><path d="M165-48c-4 18 1 34 23 27l-3 20c-29 8-62 0-52-35h-2C116-14 99 4 63 4 30 4 8-16 8-49c0-68 71-67 138-67 10-26 0-56-31-54-26 1-42 9-47 31l-32-5c8-67 160-71 144 15-5 28-9 54-15 81zM42-50c3 52 80 24 89-6 7-12 7-24 11-38-47 1-103-4-100 44" id="ag"/><g id="d"><use transform="matrix(0.07407407407407408,0,0,0.07407407407407408,0,0)" xlink:href="#Z"/><use transform="matrix(0.07407407407407408,0,0,0.07407407407407408,19.185185185185187,0)" xlink:href="#aa"/><use transform="matrix(0.07407407407407408,0,0,0.07407407407407408,34,0)" xlink:href="#ab"/><use transform="matrix(0.07407407407407408,0,0,0.07407407407407408,48.81481481481481,0)" xlink:href="#ac"/><use transform="matrix(0.07407407407407408,0,0,0.07407407407407408,54.66666666666667,0)" xlink:href="#ad"/><use transform="matrix(0.07407407407407408,0,0,0.07407407407407408,68,0)" xlink:href="#ae"/><use transform="matrix(0.07407407407407408,0,0,0.07407407407407408,75.4074074074074,0)" xlink:href="#af"/><use transform="matrix(0.07407407407407408,0,0,0.07407407407407408,84.22222222222223,0)" xlink:href="#ag"/><use transform="matrix(0.07407407407407408,0,0,0.07407407407407408,99.03703703703704,0)" xlink:href="#af"/><use transform="matrix(0.07407407407407408,0,0,0.07407407407407408,107.85185185185185,0)" xlink:href="#ad"/><use transform="matrix(0.07407407407407408,0,0,0.07407407407407408,121.18518518518519,0)" xlink:href="#aa"/></g><path d="M30-147c31-64 166-65 159 27C183-49 158 1 86 4 9 8 1-88 30-147zM88-20c53 0 68-48 68-100 0-31-11-51-44-50-52 1-68 46-68 97 0 32 13 53 44 53" id="ah"/><use transform="matrix(0.07407407407407408,0,0,0.07407407407407408,0,0)" xlink:href="#ah" id="e"/><path d="M67-158c22-48 132-52 116 29L158 0h-32l25-140c3-38-53-32-70-12C52-117 51-52 38 0H6l36-190h30" id="ai"/><path d="M44-68c0 29 11 47 38 47 30 0 42-19 51-41l28 9C148-21 126 4 82 4 31 4 10-29 12-85c3-77 74-140 146-93 12 8 15 23 18 40l-31 5c-1-22-13-36-36-36-52 0-65 49-65 101" id="aj"/><g id="f"><use transform="matrix(0.07407407407407408,0,0,0.07407407407407408,0,0)" xlink:href="#ac"/><use transform="matrix(0.07407407407407408,0,0,0.07407407407407408,5.851851851851853,0)" xlink:href="#ai"/><use transform="matrix(0.07407407407407408,0,0,0.07407407407407408,20.666666666666668,0)" xlink:href="#ac"/><use transform="matrix(0.07407407407407408,0,0,0.07407407407407408,26.518518518518526,0)" xlink:href="#aj"/><use transform="matrix(0.07407407407407408,0,0,0.07407407407407408,39.85185185185187,0)" xlink:href="#ac"/><use transform="matrix(0.07407407407407408,0,0,0.07407407407407408,45.70370370370372,0)" xlink:href="#ag"/><use transform="matrix(0.07407407407407408,0,0,0.07407407407407408,60.51851851851853,0)" xlink:href="#af"/></g><path d="M31-147c31-64 166-65 159 27C184-49 159 1 87 4 10 8 2-88 31-147zM89-20c53 0 68-48 68-100 0-31-11-51-44-50-52 1-68 46-68 97 0 32 13 53 44 53zm5-191c10-23 31-35 45-54h38l-1 5-66 49H94" id="ak"/><g id="g"><use transform="matrix(0.07407407407407408,0,0,0.07407407407407408,0,0)" xlink:href="#ad"/><use transform="matrix(0.07407407407407408,0,0,0.07407407407407408,13.333333333333336,0)" xlink:href="#aa"/><use transform="matrix(0.07407407407407408,0,0,0.07407407407407408,28.148148148148152,0)" xlink:href="#ad"/><use transform="matrix(0.07407407407407408,0,0,0.07407407407407408,41.48148148148149,0)" xlink:href="#ac"/><use transform="matrix(0.07407407407407408,0,0,0.07407407407407408,47.33333333333334,0)" xlink:href="#ak"/><use transform="matrix(0.07407407407407408,0,0,0.07407407407407408,62.14814814814816,0)" xlink:href="#ai"/></g><path d="M160-131c35 5 61 23 61 61C221 17 115-2 30 0v-248c76 3 177-17 177 60 0 33-19 50-47 57zm-97-11c50-1 110 9 110-42 0-47-63-36-110-37v79zm0 115c55-2 124 14 124-45 0-56-70-42-124-44v89" id="al"/><path d="M84 4C-5 8 30-112 23-190h32v120c0 31 7 50 39 49 72-2 45-101 50-169h31l1 190h-30c-1-10 1-25-2-33-11 22-28 36-60 37" id="am"/><path d="M96-169c-40 0-48 33-48 73s9 75 48 75c24 0 41-14 43-38l32 2c-6 37-31 61-74 61-59 0-76-41-82-99-10-93 101-131 147-64 4 7 5 14 7 22l-32 3c-4-21-16-35-41-35" id="an"/><path d="M114-163C36-179 61-72 57 0H25l-1-190h30c1 12-1 29 2 39 6-27 23-49 58-41v29" id="ao"/><g id="h"><use transform="matrix(0.07407407407407408,0,0,0.07407407407407408,0,0)" xlink:href="#al"/><use transform="matrix(0.07407407407407408,0,0,0.07407407407407408,17.77777777777778,0)" xlink:href="#am"/><use transform="matrix(0.07407407407407408,0,0,0.07407407407407408,32.592592592592595,0)" xlink:href="#J"/><use transform="matrix(0.07407407407407408,0,0,0.07407407407407408,45.92592592592593,0)" xlink:href="#an"/><use transform="matrix(0.07407407407407408,0,0,0.07407407407407408,59.25925925925927,0)" xlink:href="#N"/><use transform="matrix(0.07407407407407408,0,0,0.07407407407407408,74.07407407407408,0)" xlink:href="#ao"/></g><path d="M100-194c62-1 85 37 85 99 1 63-27 99-86 99S16-35 15-95c0-66 28-99 85-99zM99-20c44 1 53-31 53-75 0-43-8-75-51-75s-53 32-53 75 10 74 51 75" id="ap"/><use transform="matrix(0.07407407407407408,0,0,0.07407407407407408,0,0)" xlink:href="#ap" id="i"/><path d="M101-234c-31-9-42 10-38 44h38v23H63V0H32v-167H5v-23h27c-7-52 17-82 69-68v24" id="aq"/><path d="M24 0v-261h32V0H24" id="ar"/><g id="j"><use transform="matrix(0.07407407407407408,0,0,0.07407407407407408,0,0)" xlink:href="#aq"/><use transform="matrix(0.07407407407407408,0,0,0.07407407407407408,7.407407407407408,0)" xlink:href="#I"/><use transform="matrix(0.07407407407407408,0,0,0.07407407407407408,13.259259259259261,0)" xlink:href="#ar"/><use transform="matrix(0.07407407407407408,0,0,0.07407407407407408,19.111111111111114,0)" xlink:href="#K"/><use transform="matrix(0.07407407407407408,0,0,0.07407407407407408,26.518518518518523,0)" xlink:href="#ao"/><use transform="matrix(0.07407407407407408,0,0,0.07407407407407408,35.33333333333334,0)" xlink:href="#N"/><use transform="matrix(0.07407407407407408,0,0,0.07407407407407408,50.14814814814817,0)" xlink:href="#ao"/></g><path d="M115-194c55 1 70 41 70 98S169 2 115 4C84 4 66-9 55-30l1 105H24l-1-265h31l2 30c10-21 28-34 59-34zm-8 174c40 0 45-34 45-75s-6-73-45-74c-42 0-51 32-51 76 0 43 10 73 51 73" id="as"/><path d="M85-194c31 0 48 13 60 33l-1-100h32l1 261h-30c-2-10 0-23-3-31C134-8 116 4 85 4 32 4 16-35 15-94c0-66 23-100 70-100zm9 24c-40 0-46 34-46 75 0 40 6 74 45 74 42 0 51-32 51-76 0-42-9-74-50-73" id="at"/><g id="k"><use transform="matrix(0.07407407407407408,0,0,0.07407407407407408,0,0)" xlink:href="#as"/><use transform="matrix(0.07407407407407408,0,0,0.07407407407407408,14.814814814814817,0)" xlink:href="#ao"/><use transform="matrix(0.07407407407407408,0,0,0.07407407407407408,23.629629629629633,0)" xlink:href="#ap"/><use transform="matrix(0.07407407407407408,0,0,0.07407407407407408,38.44444444444445,0)" xlink:href="#at"/><use transform="matrix(0.07407407407407408,0,0,0.07407407407407408,53.25925925925927,0)" xlink:href="#am"/><use transform="matrix(0.07407407407407408,0,0,0.07407407407407408,68.07407407407408,0)" xlink:href="#an"/><use transform="matrix(0.07407407407407408,0,0,0.07407407407407408,81.40740740740742,0)" xlink:href="#K"/><use transform="matrix(0.07407407407407408,0,0,0.07407407407407408,88.81481481481482,0)" xlink:href="#ap"/></g><path d="M125-24c46 0 70-25 89-51l25 16C214-24 183 4 123 4 8 4-5-146 60-208c32-50 158-61 191-5 5 7 9 14 11 22l-32 10c-9-28-33-43-69-43-74 0-108 51-108 125 0 46 24 75 72 75" id="au"/><path d="M166-48c-4 18 1 34 23 27l-3 20c-29 8-62 0-52-35h-2C117-14 100 4 64 4 31 4 9-16 9-49c0-68 71-67 138-67 10-26 0-56-31-54-26 1-42 9-47 31l-32-5c8-67 160-71 144 15-5 28-9 54-15 81zM43-50c3 52 80 24 89-6 7-12 7-24 11-38-47 1-103-4-100 44zm52-161c10-23 31-35 45-54h38l-1 5-66 49H95" id="av"/><path d="M6 0l50-261h32L37 0H6" id="aw"/><g id="l"><use transform="matrix(0.07407407407407408,0,0,0.07407407407407408,0,0)" xlink:href="#au"/><use transform="matrix(0.07407407407407408,0,0,0.07407407407407408,19.185185185185187,0)" xlink:href="#ag"/><use transform="matrix(0.07407407407407408,0,0,0.07407407407407408,34,0)" xlink:href="#ae"/><use transform="matrix(0.07407407407407408,0,0,0.07407407407407408,41.407407407407405,0)" xlink:href="#av"/><use transform="matrix(0.07407407407407408,0,0,0.07407407407407408,56.22222222222222,0)" xlink:href="#aw"/><use transform="matrix(0.07407407407407408,0,0,0.07407407407407408,62.074074074074076,0)" xlink:href="#ah"/><use transform="matrix(0.07407407407407408,0,0,0.07407407407407408,76.88888888888889,0)" xlink:href="#ab"/><use transform="matrix(0.07407407407407408,0,0,0.07407407407407408,91.7037037037037,0)" xlink:href="#ah"/></g><path d="M133-28C103 26-5 8 13-77c13-62 24-115 90-117 29-1 46 15 56 35l19-102h32L160 0h-30zM45-64c-2 27 10 43 35 43 54-1 69-50 69-103 0-29-15-46-42-46-53-1-58 58-62 106" id="ax"/><g id="m"><use transform="matrix(0.07407407407407408,0,0,0.07407407407407408,0,0)" xlink:href="#ax"/><use transform="matrix(0.07407407407407408,0,0,0.07407407407407408,14.814814814814817,0)" xlink:href="#aa"/></g><path d="M67-162c32-53 139-36 121 50C175-51 163 2 97 4 68 4 52-11 42-31 38 6 28 39 22 75H-9l50-265h29c-1 10 0 20-3 28zm89 36c0-26-10-43-35-43-54 0-67 50-69 103-1 29 14 45 42 46 53 0 62-58 62-106" id="ay"/><path d="M67 3c-93-2-31-127-26-193h32L48-50c-3 39 53 32 70 12 30-34 30-101 43-152h32L157 0h-30c1-10 6-24 4-33-14 20-29 37-64 36" id="az"/><g id="n"><use transform="matrix(0.07407407407407408,0,0,0.07407407407407408,0,0)" xlink:href="#ay"/><use transform="matrix(0.07407407407407408,0,0,0.07407407407407408,14.814814814814817,0)" xlink:href="#af"/><use transform="matrix(0.07407407407407408,0,0,0.07407407407407408,23.629629629629633,0)" xlink:href="#ah"/><use transform="matrix(0.07407407407407408,0,0,0.07407407407407408,38.44444444444445,0)" xlink:href="#ax"/><use transform="matrix(0.07407407407407408,0,0,0.07407407407407408,53.25925925925927,0)" xlink:href="#az"/><use transform="matrix(0.07407407407407408,0,0,0.07407407407407408,68.07407407407408,0)" xlink:href="#aj"/><use transform="matrix(0.07407407407407408,0,0,0.07407407407407408,81.40740740740742,0)" xlink:href="#ae"/><use transform="matrix(0.07407407407407408,0,0,0.07407407407407408,88.81481481481482,0)" xlink:href="#ah"/><use transform="matrix(0.07407407407407408,0,0,0.07407407407407408,103.62962962962965,0)" xlink:href="#ad"/></g><path d="M233-177c-1 41-23 64-60 70L243 0h-38l-65-103H63V0H30v-248c88 3 205-21 203 71zM63-129c60-2 137 13 137-47 0-61-80-42-137-45v92" id="aA"/><path d="M9 0v-24l116-142H16v-24h144v24L44-24h123V0H9" id="aB"/><g id="o"><use transform="matrix(0.07407407407407408,0,0,0.07407407407407408,0,0)" xlink:href="#aA"/><use transform="matrix(0.07407407407407408,0,0,0.07407407407407408,19.185185185185187,0)" xlink:href="#L"/><use transform="matrix(0.07407407407407408,0,0,0.07407407407407408,34,0)" xlink:href="#N"/><use transform="matrix(0.07407407407407408,0,0,0.07407407407407408,48.81481481481481,0)" xlink:href="#ar"/><use transform="matrix(0.07407407407407408,0,0,0.07407407407407408,54.66666666666667,0)" xlink:href="#I"/><use transform="matrix(0.07407407407407408,0,0,0.07407407407407408,60.518518518518526,0)" xlink:href="#aB"/><use transform="matrix(0.07407407407407408,0,0,0.07407407407407408,73.85185185185186,0)" xlink:href="#N"/><use transform="matrix(0.07407407407407408,0,0,0.07407407407407408,88.66666666666667,0)" xlink:href="#ao"/></g><path d="M177-190C167-65 218 103 67 71c-23-6-38-20-44-43l32-5c15 47 100 32 89-28v-30C133-14 115 1 83 1 29 1 15-40 15-95c0-56 16-97 71-98 29-1 48 16 59 35 1-10 0-23 2-32h30zM94-22c36 0 50-32 50-73 0-42-14-75-50-75-39 0-46 34-46 75s6 73 46 73" id="aC"/><g id="p"><use transform="matrix(0.07407407407407408,0,0,0.07407407407407408,0,0)" xlink:href="#as"/><use transform="matrix(0.07407407407407408,0,0,0.07407407407407408,14.814814814814817,0)" xlink:href="#N"/><use transform="matrix(0.07407407407407408,0,0,0.07407407407407408,29.629629629629633,0)" xlink:href="#aC"/><use transform="matrix(0.07407407407407408,0,0,0.07407407407407408,44.44444444444445,0)" xlink:href="#ap"/></g><path d="M137 0h-34L2-248h35l83 218 83-218h36" id="aD"/><g id="q"><use transform="matrix(0.07407407407407408,0,0,0.07407407407407408,0,0)" xlink:href="#aD"/><use transform="matrix(0.07407407407407408,0,0,0.07407407407407408,15.777777777777779,0)" xlink:href="#N"/><use transform="matrix(0.07407407407407408,0,0,0.07407407407407408,30.592592592592595,0)" xlink:href="#ar"/><use transform="matrix(0.07407407407407408,0,0,0.07407407407407408,36.44444444444445,0)" xlink:href="#I"/><use transform="matrix(0.07407407407407408,0,0,0.07407407407407408,42.296296296296305,0)" xlink:href="#at"/><use transform="matrix(0.07407407407407408,0,0,0.07407407407407408,57.11111111111112,0)" xlink:href="#N"/><use transform="matrix(0.07407407407407408,0,0,0.07407407407407408,71.92592592592594,0)" xlink:href="#ao"/></g><g id="r"><use transform="matrix(0.07407407407407408,0,0,0.07407407407407408,0,0)" xlink:href="#at"/><use transform="matrix(0.07407407407407408,0,0,0.07407407407407408,14.814814814814817,0)" xlink:href="#N"/><use transform="matrix(0.07407407407407408,0,0,0.07407407407407408,29.629629629629633,0)" xlink:href="#K"/><use transform="matrix(0.07407407407407408,0,0,0.07407407407407408,37.03703703703704,0)" xlink:href="#ap"/><use transform="matrix(0.07407407407407408,0,0,0.07407407407407408,51.85185185185186,0)" xlink:href="#J"/></g><g id="s"><use transform="matrix(0.07407407407407408,0,0,0.07407407407407408,0,0)" xlink:href="#aD"/><use transform="matrix(0.07407407407407408,0,0,0.07407407407407408,16.296296296296298,0)" xlink:href="#L"/><use transform="matrix(0.07407407407407408,0,0,0.07407407407407408,31.111111111111114,0)" xlink:href="#ao"/><use transform="matrix(0.07407407407407408,0,0,0.07407407407407408,39.92592592592593,0)" xlink:href="#I"/><use transform="matrix(0.07407407407407408,0,0,0.07407407407407408,45.777777777777786,0)" xlink:href="#aq"/><use transform="matrix(0.07407407407407408,0,0,0.07407407407407408,53.18518518518519,0)" xlink:href="#I"/><use transform="matrix(0.07407407407407408,0,0,0.07407407407407408,59.037037037037045,0)" xlink:href="#an"/><use transform="matrix(0.07407407407407408,0,0,0.07407407407407408,72.37037037037038,0)" xlink:href="#N"/><use transform="matrix(0.07407407407407408,0,0,0.07407407407407408,87.18518518518519,0)" xlink:href="#ao"/></g><path d="M117-194c89-4 53 116 60 194h-32v-121c0-31-8-49-39-48C34-167 62-67 57 0H25l-1-190h30c1 10-1 24 2 32 11-22 29-35 61-36" id="aE"/><path d="M115-194c53 0 69 39 70 98 0 66-23 100-70 100C84 3 66-7 56-30L54 0H23l1-261h32v101c10-23 28-34 59-34zm-8 174c40 0 45-34 45-75 0-40-5-75-45-74-42 0-51 32-51 76 0 43 10 73 51 73" id="aF"/><g id="t"><use transform="matrix(0.07407407407407408,0,0,0.07407407407407408,0,0)" xlink:href="#at"/><use transform="matrix(0.07407407407407408,0,0,0.07407407407407408,14.814814814814817,0)" xlink:href="#I"/><use transform="matrix(0.07407407407407408,0,0,0.07407407407407408,20.666666666666668,0)" xlink:href="#J"/><use transform="matrix(0.07407407407407408,0,0,0.07407407407407408,34.00000000000001,0)" xlink:href="#as"/><use transform="matrix(0.07407407407407408,0,0,0.07407407407407408,48.814814814814824,0)" xlink:href="#ap"/><use transform="matrix(0.07407407407407408,0,0,0.07407407407407408,63.62962962962964,0)" xlink:href="#aE"/><use transform="matrix(0.07407407407407408,0,0,0.07407407407407408,78.44444444444446,0)" xlink:href="#I"/><use transform="matrix(0.07407407407407408,0,0,0.07407407407407408,84.2962962962963,0)" xlink:href="#aF"/><use transform="matrix(0.07407407407407408,0,0,0.07407407407407408,99.11111111111111,0)" xlink:href="#I"/><use transform="matrix(0.07407407407407408,0,0,0.07407407407407408,104.96296296296296,0)" xlink:href="#ar"/><use transform="matrix(0.07407407407407408,0,0,0.07407407407407408,110.81481481481481,0)" xlink:href="#I"/><use transform="matrix(0.07407407407407408,0,0,0.07407407407407408,116.66666666666667,0)" xlink:href="#at"/><use transform="matrix(0.07407407407407408,0,0,0.07407407407407408,131.48148148148147,0)" xlink:href="#N"/><use transform="matrix(0.07407407407407408,0,0,0.07407407407407408,146.29629629629628,0)" xlink:href="#at"/></g><g id="u"><use transform="matrix(0.07407407407407408,0,0,0.07407407407407408,0,0)" xlink:href="#aD"/><use transform="matrix(0.07407407407407408,0,0,0.07407407407407408,17.25925925925926,0)" xlink:href="#I"/><use transform="matrix(0.07407407407407408,0,0,0.07407407407407408,23.111111111111114,0)" xlink:href="#J"/><use transform="matrix(0.07407407407407408,0,0,0.07407407407407408,36.44444444444445,0)" xlink:href="#am"/><use transform="matrix(0.07407407407407408,0,0,0.07407407407407408,51.25925925925927,0)" xlink:href="#N"/><use transform="matrix(0.07407407407407408,0,0,0.07407407407407408,66.07407407407408,0)" xlink:href="#ar"/><use transform="matrix(0.07407407407407408,0,0,0.07407407407407408,71.92592592592592,0)" xlink:href="#I"/><use transform="matrix(0.07407407407407408,0,0,0.07407407407407408,77.77777777777777,0)" xlink:href="#aB"/><use transform="matrix(0.07407407407407408,0,0,0.07407407407407408,91.1111111111111,0)" xlink:href="#N"/><use transform="matrix(0.07407407407407408,0,0,0.07407407407407408,105.92592592592592,0)" xlink:href="#ao"/></g><path d="M205 0l-28-72H64L36 0H1l101-248h38L239 0h-34zm-38-99l-47-123c-12 45-31 82-46 123h93" id="aG"/><g id="v"><use transform="matrix(0.07407407407407408,0,0,0.07407407407407408,0,0)" xlink:href="#aG"/><use transform="matrix(0.07407407407407408,0,0,0.07407407407407408,17.77777777777778,0)" xlink:href="#aC"/><use transform="matrix(0.07407407407407408,0,0,0.07407407407407408,32.592592592592595,0)" xlink:href="#ao"/><use transform="matrix(0.07407407407407408,0,0,0.07407407407407408,41.40740740740741,0)" xlink:href="#L"/><use transform="matrix(0.07407407407407408,0,0,0.07407407407407408,56.22222222222223,0)" xlink:href="#aC"/><use transform="matrix(0.07407407407407408,0,0,0.07407407407407408,71.03703703703704,0)" xlink:href="#N"/><use transform="matrix(0.07407407407407408,0,0,0.07407407407407408,85.85185185185185,0)" xlink:href="#ao"/></g><g id="w"><use transform="matrix(0.07407407407407408,0,0,0.07407407407407408,0,0)" xlink:href="#as"/><use transform="matrix(0.07407407407407408,0,0,0.07407407407407408,14.814814814814817,0)" xlink:href="#ao"/><use transform="matrix(0.07407407407407408,0,0,0.07407407407407408,23.629629629629633,0)" xlink:href="#ap"/><use transform="matrix(0.07407407407407408,0,0,0.07407407407407408,38.44444444444445,0)" xlink:href="#at"/><use transform="matrix(0.07407407407407408,0,0,0.07407407407407408,53.25925925925927,0)" xlink:href="#am"/><use transform="matrix(0.07407407407407408,0,0,0.07407407407407408,68.07407407407408,0)" xlink:href="#an"/><use transform="matrix(0.07407407407407408,0,0,0.07407407407407408,81.40740740740742,0)" xlink:href="#K"/><use transform="matrix(0.07407407407407408,0,0,0.07407407407407408,88.81481481481482,0)" xlink:href="#ap"/><use transform="matrix(0.07407407407407408,0,0,0.07407407407407408,103.62962962962965,0)" xlink:href="#J"/></g><g id="x"><use transform="matrix(0.07407407407407408,0,0,0.07407407407407408,0,0)" xlink:href="#N"/><use transform="matrix(0.07407407407407408,0,0,0.07407407407407408,14.814814814814817,0)" xlink:href="#ar"/></g><g id="y"><use transform="matrix(0.07407407407407408,0,0,0.07407407407407408,0,0)" xlink:href="#an"/><use transform="matrix(0.07407407407407408,0,0,0.07407407407407408,13.333333333333336,0)" xlink:href="#N"/><use transform="matrix(0.07407407407407408,0,0,0.07407407407407408,28.148148148148152,0)" xlink:href="#ao"/><use transform="matrix(0.07407407407407408,0,0,0.07407407407407408,36.96296296296297,0)" xlink:href="#ao"/><use transform="matrix(0.07407407407407408,0,0,0.07407407407407408,45.777777777777786,0)" xlink:href="#I"/><use transform="matrix(0.07407407407407408,0,0,0.07407407407407408,51.62962962962963,0)" xlink:href="#K"/><use transform="matrix(0.07407407407407408,0,0,0.07407407407407408,59.03703703703705,0)" xlink:href="#ap"/></g><g id="z"><use transform="matrix(0.07407407407407408,0,0,0.07407407407407408,0,0)" xlink:href="#aG"/><use transform="matrix(0.07407407407407408,0,0,0.07407407407407408,17.77777777777778,0)" xlink:href="#at"/><use transform="matrix(0.07407407407407408,0,0,0.07407407407407408,32.592592592592595,0)" xlink:href="#M"/><use transform="matrix(0.07407407407407408,0,0,0.07407407407407408,54.74074074074075,0)" xlink:href="#I"/><use transform="matrix(0.07407407407407408,0,0,0.07407407407407408,60.5925925925926,0)" xlink:href="#aE"/><use transform="matrix(0.07407407407407408,0,0,0.07407407407407408,75.40740740740742,0)" xlink:href="#I"/><use transform="matrix(0.07407407407407408,0,0,0.07407407407407408,81.25925925925927,0)" xlink:href="#J"/><use transform="matrix(0.07407407407407408,0,0,0.07407407407407408,94.59259259259261,0)" xlink:href="#K"/><use transform="matrix(0.07407407407407408,0,0,0.07407407407407408,102.00000000000001,0)" xlink:href="#ao"/><use transform="matrix(0.07407407407407408,0,0,0.07407407407407408,110.81481481481485,0)" xlink:href="#N"/><use transform="matrix(0.07407407407407408,0,0,0.07407407407407408,125.62962962962965,0)" xlink:href="#ao"/></g><g id="A"><use transform="matrix(0.07407407407407408,0,0,0.07407407407407408,0,0)" xlink:href="#as"/><use transform="matrix(0.07407407407407408,0,0,0.07407407407407408,14.814814814814817,0)" xlink:href="#ao"/><use transform="matrix(0.07407407407407408,0,0,0.07407407407407408,23.629629629629633,0)" xlink:href="#L"/><use transform="matrix(0.07407407407407408,0,0,0.07407407407407408,38.44444444444445,0)" xlink:href="#an"/><use transform="matrix(0.07407407407407408,0,0,0.07407407407407408,51.777777777777786,0)" xlink:href="#I"/><use transform="matrix(0.07407407407407408,0,0,0.07407407407407408,57.62962962962964,0)" xlink:href="#ap"/><use transform="matrix(0.07407407407407408,0,0,0.07407407407407408,72.44444444444446,0)" xlink:href="#J"/></g><path d="M179-190L93 31C79 59 56 82 12 73V49c39 6 53-20 64-50L1-190h34L92-34l54-156h33" id="aH"/><use transform="matrix(0.07407407407407408,0,0,0.07407407407407408,0,0)" xlink:href="#aH" id="B"/><g id="C"><use transform="matrix(0.07407407407407408,0,0,0.07407407407407408,0,0)" xlink:href="#at"/><use transform="matrix(0.07407407407407408,0,0,0.07407407407407408,14.814814814814817,0)" xlink:href="#L"/><use transform="matrix(0.07407407407407408,0,0,0.07407407407407408,29.629629629629633,0)" xlink:href="#J"/><use transform="matrix(0.07407407407407408,0,0,0.07407407407407408,42.96296296296297,0)" xlink:href="#an"/><use transform="matrix(0.07407407407407408,0,0,0.07407407407407408,56.296296296296305,0)" xlink:href="#am"/><use transform="matrix(0.07407407407407408,0,0,0.07407407407407408,71.11111111111111,0)" xlink:href="#L"/><use transform="matrix(0.07407407407407408,0,0,0.07407407407407408,85.92592592592592,0)" xlink:href="#aE"/><use transform="matrix(0.07407407407407408,0,0,0.07407407407407408,100.74074074074073,0)" xlink:href="#K"/><use transform="matrix(0.07407407407407408,0,0,0.07407407407407408,108.14814814814815,0)" xlink:href="#ap"/><use transform="matrix(0.07407407407407408,0,0,0.07407407407407408,122.96296296296296,0)" xlink:href="#J"/></g><path d="M143 4C61 4 22-44 18-125c-5-107 100-154 193-111 17 8 29 25 37 43l-32 9c-13-25-37-40-76-40-61 0-88 39-88 99 0 61 29 100 91 101 35 0 62-11 79-27v-45h-74v-28h105v86C228-13 192 4 143 4" id="aI"/><g id="D"><use transform="matrix(0.07407407407407408,0,0,0.07407407407407408,0,0)" xlink:href="#aI"/><use transform="matrix(0.07407407407407408,0,0,0.07407407407407408,20.740740740740744,0)" xlink:href="#L"/><use transform="matrix(0.07407407407407408,0,0,0.07407407407407408,35.55555555555556,0)" xlink:href="#aE"/><use transform="matrix(0.07407407407407408,0,0,0.07407407407407408,50.370370370370374,0)" xlink:href="#L"/><use transform="matrix(0.07407407407407408,0,0,0.07407407407407408,65.18518518518519,0)" xlink:href="#ao"/><use transform="matrix(0.07407407407407408,0,0,0.07407407407407408,74,0)" xlink:href="#N"/><use transform="matrix(0.07407407407407408,0,0,0.07407407407407408,88.81481481481481,0)" xlink:href="#ao"/></g><g id="E"><use transform="matrix(0.07407407407407408,0,0,0.07407407407407408,0,0)" xlink:href="#as"/><use transform="matrix(0.07407407407407408,0,0,0.07407407407407408,14.814814814814817,0)" xlink:href="#L"/><use transform="matrix(0.07407407407407408,0,0,0.07407407407407408,29.629629629629633,0)" xlink:href="#at"/><use transform="matrix(0.07407407407407408,0,0,0.07407407407407408,44.44444444444445,0)" xlink:href="#I"/><use transform="matrix(0.07407407407407408,0,0,0.07407407407407408,50.296296296296305,0)" xlink:href="#at"/><use transform="matrix(0.07407407407407408,0,0,0.07407407407407408,65.11111111111111,0)" xlink:href="#ap"/></g><path fill="#1071e5" d="M18-100v-36l175-74v27L42-118l151 64v27" id="aJ"/><path fill="#1071e5" d="M24-231v-30h32v30H24zM24 0v-190h32V0H24" id="aK"/><path fill="#1071e5" d="M117-194c89-4 53 116 60 194h-32v-121c0-31-8-49-39-48C34-167 62-67 57 0H25l-1-190h30c1 10-1 24 2 32 11-22 29-35 61-36" id="aL"/><path fill="#1071e5" d="M96-169c-40 0-48 33-48 73s9 75 48 75c24 0 41-14 43-38l32 2c-6 37-31 61-74 61-59 0-76-41-82-99-10-93 101-131 147-64 4 7 5 14 7 22l-32 3c-4-21-16-35-41-35" id="aM"/><path fill="#1071e5" d="M24 0v-261h32V0H24" id="aN"/><path fill="#1071e5" d="M84 4C-5 8 30-112 23-190h32v120c0 31 7 50 39 49 72-2 45-101 50-169h31l1 190h-30c-1-10 1-25-2-33-11 22-28 36-60 37" id="aO"/><path fill="#1071e5" d="M85-194c31 0 48 13 60 33l-1-100h32l1 261h-30c-2-10 0-23-3-31C134-8 116 4 85 4 32 4 16-35 15-94c0-66 23-100 70-100zm9 24c-40 0-46 34-46 75 0 40 6 74 45 74 42 0 51-32 51-76 0-42-9-74-50-73" id="aP"/><path fill="#1071e5" d="M100-194c63 0 86 42 84 106H49c0 40 14 67 53 68 26 1 43-12 49-29l28 8c-11 28-37 45-77 45C44 4 14-33 15-96c1-61 26-98 85-98zm52 81c6-60-76-77-97-28-3 7-6 17-6 28h103" id="aQ"/><path fill="#1071e5" d="M18-27v-27l151-64-151-65v-27l175 74v36" id="aR"/><g id="F"><use transform="matrix(0.04938271604938272,0,0,0.04938271604938272,0,0)" xlink:href="#aJ"/><use transform="matrix(0.04938271604938272,0,0,0.04938271604938272,10.370370370370372,0)" xlink:href="#aJ"/><use transform="matrix(0.04938271604938272,0,0,0.04938271604938272,20.740740740740744,0)" xlink:href="#aK"/><use transform="matrix(0.04938271604938272,0,0,0.04938271604938272,24.641975308641978,0)" xlink:href="#aL"/><use transform="matrix(0.04938271604938272,0,0,0.04938271604938272,34.51851851851852,0)" xlink:href="#aM"/><use transform="matrix(0.04938271604938272,0,0,0.04938271604938272,43.407407407407405,0)" xlink:href="#aN"/><use transform="matrix(0.04938271604938272,0,0,0.04938271604938272,47.30864197530864,0)" xlink:href="#aO"/><use transform="matrix(0.04938271604938272,0,0,0.04938271604938272,57.185185185185176,0)" xlink:href="#aP"/><use transform="matrix(0.04938271604938272,0,0,0.04938271604938272,67.06172839506172,0)" xlink:href="#aQ"/><use transform="matrix(0.04938271604938272,0,0,0.04938271604938272,76.93827160493827,0)" xlink:href="#aR"/><use transform="matrix(0.04938271604938272,0,0,0.04938271604938272,87.30864197530863,0)" xlink:href="#aR"/></g><path fill="#e81313" d="M18-100v-36l175-74v27L42-118l151 64v27" id="aS"/><path fill="#e81313" d="M100-194c63 0 86 42 84 106H49c0 40 14 67 53 68 26 1 43-12 49-29l28 8c-11 28-37 45-77 45C44 4 14-33 15-96c1-61 26-98 85-98zm52 81c6-60-76-77-97-28-3 7-6 17-6 28h103" id="aT"/><path fill="#e81313" d="M141 0L90-78 38 0H4l68-98-65-92h35l48 74 47-74h35l-64 92 68 98h-35" id="aU"/><path fill="#e81313" d="M59-47c-2 24 18 29 38 22v24C64 9 27 4 27-40v-127H5v-23h24l9-43h21v43h35v23H59v120" id="aV"/><path fill="#e81313" d="M117-194c89-4 53 116 60 194h-32v-121c0-31-8-49-39-48C34-167 62-67 57 0H25l-1-190h30c1 10-1 24 2 32 11-22 29-35 61-36" id="aW"/><path fill="#e81313" d="M85-194c31 0 48 13 60 33l-1-100h32l1 261h-30c-2-10 0-23-3-31C134-8 116 4 85 4 32 4 16-35 15-94c0-66 23-100 70-100zm9 24c-40 0-46 34-46 75 0 40 6 74 45 74 42 0 51-32 51-76 0-42-9-74-50-73" id="aX"/><path fill="#e81313" d="M18-27v-27l151-64-151-65v-27l175 74v36" id="aY"/><g id="G"><use transform="matrix(0.04938271604938272,0,0,0.04938271604938272,0,0)" xlink:href="#aS"/><use transform="matrix(0.04938271604938272,0,0,0.04938271604938272,10.370370370370372,0)" xlink:href="#aS"/><use transform="matrix(0.04938271604938272,0,0,0.04938271604938272,20.740740740740744,0)" xlink:href="#aT"/><use transform="matrix(0.04938271604938272,0,0,0.04938271604938272,30.617283950617285,0)" xlink:href="#aU"/><use transform="matrix(0.04938271604938272,0,0,0.04938271604938272,39.50617283950618,0)" xlink:href="#aV"/><use transform="matrix(0.04938271604938272,0,0,0.04938271604938272,44.44444444444445,0)" xlink:href="#aT"/><use transform="matrix(0.04938271604938272,0,0,0.04938271604938272,54.320987654320994,0)" xlink:href="#aW"/><use transform="matrix(0.04938271604938272,0,0,0.04938271604938272,64.19753086419755,0)" xlink:href="#aX"/><use transform="matrix(0.04938271604938272,0,0,0.04938271604938272,74.07407407407409,0)" xlink:href="#aY"/><use transform="matrix(0.04938271604938272,0,0,0.04938271604938272,84.44444444444446,0)" xlink:href="#aY"/></g></defs></g></svg>