<?xml version="1.0" standalone="no"?>
<!DOCTYPE svg PUBLIC "-//W3C//DTD SVG 20010904//EN"
 "http://www.w3.org/TR/2001/REC-SVG-20010904/DTD/svg10.dtd">
<svg version="1.0" xmlns="http://www.w3.org/2000/svg"
 width="322.000000pt" height="184.000000pt" viewBox="0 0 322.000000 184.000000"
 preserveAspectRatio="xMidYMid meet">

<g transform="translate(0.000000,184.000000) scale(0.100000,-0.100000)"
stroke="none">
<path fill="#EA4F7A" d="M1150 1559 c-19 -4 -48 -11 -65 -14 -53 -11 -136 -59 -184 -105 -56
-55 -101 -114 -101 -132 0 -8 -5 -19 -10 -24 -6 -6 -13 -33 -16 -60 -8 -64 9
-82 64 -68 31 8 37 14 43 44 4 19 12 36 18 38 6 2 11 12 11 23 0 10 5 19 10
19 6 0 10 6 10 13 2 43 134 137 194 137 18 0 37 5 43 11 7 7 28 9 55 5 102
-13 128 -19 128 -26 0 -4 11 -11 24 -14 13 -3 67 -49 120 -101 126 -126 131
-126 248 -12 112 108 146 129 228 142 70 11 190 1 190 -16 0 -5 8 -9 19 -9 10
0 24 -7 31 -15 7 -8 17 -15 22 -15 26 0 128 -136 128 -170 0 -10 5 -22 10 -25
12 -8 13 -162 1 -169 -5 -3 -12 -21 -15 -40 -4 -19 -10 -36 -14 -38 -4 -2 -14
-15 -23 -31 -21 -38 -679 -697 -696 -697 -8 0 -85 72 -172 160 -173 176 -191
186 -230 131 -12 -16 -21 -32 -21 -36 0 -8 414 -425 423 -425 6 0 767 762 767
768 0 1 9 13 21 25 11 12 27 38 35 57 8 19 22 48 30 63 19 39 20 254 0 294 -8
15 -20 42 -28 58 -7 17 -17 35 -23 42 -5 7 -16 19 -22 27 -7 8 -13 17 -13 20
0 10 -56 62 -95 87 -49 32 -101 55 -140 64 -16 3 -49 10 -73 15 -26 6 -60 6
-90 0 -26 -6 -60 -13 -77 -16 -68 -13 -145 -60 -230 -138 -27 -25 -52 -46 -56
-46 -7 0 -55 36 -85 65 -35 33 -69 61 -84 68 -8 4 -28 16 -45 26 -16 11 -40
20 -53 20 -13 1 -32 6 -43 12 -26 13 -125 19 -169 8z"/>
<path d="M414 1279 c-18 -20 -19 -42 -19 -444 l0 -423 24 -21 c32 -28 72 -27
99 2 21 22 22 32 22 200 l0 177 549 0 c540 0 549 0 575 21 36 28 36 80 0 108
-26 21 -35 21 -575 21 l-549 0 0 168 c0 155 -2 170 -20 190 -27 29 -80 29
-106 1z"/>
<path d="M2771 1274 c-19 -25 -21 -40 -21 -190 l0 -164 -59 0 c-74 0 -111 -25
-111 -75 0 -50 37 -75 111 -75 l59 0 0 -175 c0 -173 0 -176 25 -200 33 -34 77
-33 104 1 20 26 21 37 21 430 0 468 -1 473 -77 474 -22 0 -38 -8 -52 -26z"/>
<path d="M158 1069 c-16 -17 -18 -43 -18 -237 l0 -218 29 -17 c40 -23 68 -21
96 8 25 24 25 25 25 226 0 172 -2 205 -17 230 -15 25 -23 29 -58 28 -26 0 -46
-7 -57 -20z"/>
<path d="M3017 1061 c-15 -25 -17 -58 -17 -230 0 -201 0 -202 25 -226 28 -29
56 -31 96 -8 l29 17 0 218 c0 205 -1 219 -20 238 -13 13 -33 20 -58 20 -31 0
-41 -5 -55 -29z"/>
</g>
</svg>
